<svg width="100" height="86" viewBox="0 0 100 86" fill="none" xmlns="http://www.w3.org/2000/svg">
<path d="M97.2683 21.3318C92.8779 13.6243 86.5364 9.81938 78.3411 9.81938C66.7311 9.81938 57.6578 17.8195 57.6578 28.8441C57.6578 37.1369 61.7554 41.8199 72.5849 46.8932L79.2192 50.0152C88.39 54.3079 91.6096 57.43 91.6096 63.7715C91.6096 71.8692 84.8778 78.3084 76.8777 78.3084C68.8775 78.3084 63.9018 73.7229 61.853 64.7471L53.9504 66.9911C56.5846 78.7962 64.7799 85.9182 76.585 85.9182C89.6584 85.9182 100 75.7717 100 63.2837C100 53.8201 95.1219 48.4542 83.3168 43.0882L76.3898 39.9662C69.4629 36.8442 65.9506 33.332 65.9506 28.9417C65.9506 22.3074 71.4141 17.6244 78.146 17.6244C83.8046 17.6244 87.2193 19.5756 90.7316 25.6245L97.2683 21.3318Z" fill="black"/>
<circle cx="41.2156" cy="76.0415" r="8.60847" fill="#FE414D"/>
<path d="M13.0528 68.0511L13.5464 70.5019L15.9972 70.0084L44.114 64.3464C60.996 60.9468 71.9257 44.5053 68.5261 27.6233C65.1265 10.7413 48.685 -0.188412 31.803 3.21117C14.921 6.61076 3.99128 23.0523 7.39087 39.9343L13.0528 68.0511ZM41.3264 50.5036L24.6016 53.8716L21.2336 37.1467C19.3736 27.9098 25.3537 18.914 34.5905 17.0539C43.8274 15.1939 52.8233 21.174 54.6833 30.4108C56.5434 39.6477 50.5633 48.6436 41.3264 50.5036Z" fill="#FE414D" stroke="white" stroke-width="5"/>
<path fill-rule="evenodd" clip-rule="evenodd" d="M20.3611 49.4761L31.3102 56.7546L14.3311 85.4627L1.03559e-06 75.9359L20.3611 49.4761Z" fill="#FE414D"/>
</svg>
